solid Exported from Blender-2.92.0
facet normal 0.000000 -1.000000 0.000000
outer loop
vertex 2.000000 -1.000000 80.000000
vertex 2.000000 -1.000000 76.000000
vertex 6.045080 -1.000000 77.061096
endloop
endfacet
facet normal 0.000000 -1.000000 0.000000
outer loop
vertex 6.045080 -1.000000 77.061096
vertex 6.045080 -1.000000 73.061096
vertex 10.090200 -1.000000 74.122101
endloop
endfacet
facet normal 0.000000 -1.000000 0.000000
outer loop
vertex 10.090200 -1.000000 74.122101
vertex 10.090200 -1.000000 70.122101
vertex 14.135300 -1.000000 71.183197
endloop
endfacet
facet normal 0.000000 -1.000000 0.000000
outer loop
vertex 14.135300 -1.000000 71.183197
vertex 14.135300 -1.000000 67.183197
vertex 18.180300 -1.000000 68.244301
endloop
endfacet
facet normal 0.000000 -1.000000 0.000000
outer loop
vertex 18.180300 -1.000000 68.244301
vertex 18.180300 -1.000000 64.244301
vertex 22.225401 -1.000000 65.305397
endloop
endfacet
facet normal 0.000000 -1.000000 0.000000
outer loop
vertex 22.225401 -1.000000 65.305397
vertex 22.225401 -1.000000 61.305401
vertex 26.270500 -1.000000 62.366402
endloop
endfacet
facet normal 0.000000 -1.000000 0.000000
outer loop
vertex 26.270500 -1.000000 62.366402
vertex 26.270500 -1.000000 58.366402
vertex 30.315599 -1.000000 59.427502
endloop
endfacet
facet normal 0.000000 -1.000000 0.000000
outer loop
vertex 30.315599 -1.000000 59.427502
vertex 30.315599 -1.000000 55.427502
vertex 34.360699 -1.000000 56.488602
endloop
endfacet
facet normal 0.000000 -1.000000 0.000000
outer loop
vertex 2.000000 -1.000000 76.000000
vertex 6.045080 -1.000000 73.061096
vertex 6.045080 -1.000000 77.061096
endloop
endfacet
facet normal 0.000000 -1.000000 0.000000
outer loop
vertex 6.045080 -1.000000 73.061096
vertex 10.090200 -1.000000 70.122101
vertex 10.090200 -1.000000 74.122101
endloop
endfacet
facet normal 0.000000 -1.000000 0.000000
outer loop
vertex 10.090200 -1.000000 70.122101
vertex 14.135300 -1.000000 67.183197
vertex 14.135300 -1.000000 71.183197
endloop
endfacet
facet normal 0.000000 -1.000000 0.000000
outer loop
vertex 14.135300 -1.000000 67.183197
vertex 18.180300 -1.000000 64.244301
vertex 18.180300 -1.000000 68.244301
endloop
endfacet
facet normal 0.000000 -1.000000 0.000000
outer loop
vertex 18.180300 -1.000000 64.244301
vertex 22.225401 -1.000000 61.305401
vertex 22.225401 -1.000000 65.305397
endloop
endfacet
facet normal 0.000000 -1.000000 0.000000
outer loop
vertex 22.225401 -1.000000 61.305401
vertex 26.270500 -1.000000 58.366402
vertex 26.270500 -1.000000 62.366402
endloop
endfacet
facet normal 0.000000 -1.000000 0.000000
outer loop
vertex 26.270500 -1.000000 58.366402
vertex 30.315599 -1.000000 55.427502
vertex 30.315599 -1.000000 59.427502
endloop
endfacet
facet normal 0.000000 -1.000000 0.000000
outer loop
vertex 30.315599 -1.000000 55.427502
vertex 34.360699 -1.000000 52.488602
vertex 34.360699 -1.000000 56.488602
endloop
endfacet
facet normal 1.000000 0.000000 0.000000
outer loop
vertex 34.360699 -1.000000 56.488602
vertex 34.360699 1.000000 52.488602
vertex 34.360699 1.000000 56.488602
endloop
endfacet
facet normal 0.000000 1.000000 0.000000
outer loop
vertex 2.000000 1.000000 80.000000
vertex 6.045080 1.000000 77.061096
vertex 2.000000 1.000000 76.000000
endloop
endfacet
facet normal 0.000000 1.000000 0.000000
outer loop
vertex 6.045080 1.000000 77.061096
vertex 10.090200 1.000000 74.122101
vertex 6.045080 1.000000 73.061096
endloop
endfacet
facet normal 0.000000 1.000000 0.000000
outer loop
vertex 10.090200 1.000000 74.122101
vertex 14.135300 1.000000 71.183197
vertex 10.090200 1.000000 70.122101
endloop
endfacet
facet normal 0.000000 1.000000 0.000000
outer loop
vertex 14.135300 1.000000 71.183197
vertex 18.180300 1.000000 68.244301
vertex 14.135300 1.000000 67.183197
endloop
endfacet
facet normal 0.000000 1.000000 0.000000
outer loop
vertex 18.180300 1.000000 68.244301
vertex 22.225401 1.000000 65.305397
vertex 18.180300 1.000000 64.244301
endloop
endfacet
facet normal 0.000000 1.000000 0.000000
outer loop
vertex 22.225401 1.000000 65.305397
vertex 26.270500 1.000000 62.366402
vertex 22.225401 1.000000 61.305401
endloop
endfacet
facet normal 0.000000 1.000000 0.000000
outer loop
vertex 26.270500 1.000000 62.366402
vertex 30.315599 1.000000 59.427502
vertex 26.270500 1.000000 58.366402
endloop
endfacet
facet normal 0.000000 1.000000 0.000000
outer loop
vertex 30.315599 1.000000 59.427502
vertex 34.360699 1.000000 56.488602
vertex 30.315599 1.000000 55.427502
endloop
endfacet
facet normal 0.000000 1.000000 0.000000
outer loop
vertex 2.000000 1.000000 76.000000
vertex 6.045080 1.000000 77.061096
vertex 6.045080 1.000000 73.061096
endloop
endfacet
facet normal 0.000000 1.000000 0.000000
outer loop
vertex 6.045080 1.000000 73.061096
vertex 10.090200 1.000000 74.122101
vertex 10.090200 1.000000 70.122101
endloop
endfacet
facet normal 0.000000 1.000000 0.000000
outer loop
vertex 10.090200 1.000000 70.122101
vertex 14.135300 1.000000 71.183197
vertex 14.135300 1.000000 67.183197
endloop
endfacet
facet normal 0.000000 1.000000 0.000000
outer loop
vertex 14.135300 1.000000 67.183197
vertex 18.180300 1.000000 68.244301
vertex 18.180300 1.000000 64.244301
endloop
endfacet
facet normal 0.000000 1.000000 0.000000
outer loop
vertex 18.180300 1.000000 64.244301
vertex 22.225401 1.000000 65.305397
vertex 22.225401 1.000000 61.305401
endloop
endfacet
facet normal 0.000000 1.000000 0.000000
outer loop
vertex 22.225401 1.000000 61.305401
vertex 26.270500 1.000000 62.366402
vertex 26.270500 1.000000 58.366402
endloop
endfacet
facet normal 0.000000 1.000000 0.000000
outer loop
vertex 26.270500 1.000000 58.366402
vertex 30.315599 1.000000 59.427502
vertex 30.315599 1.000000 55.427502
endloop
endfacet
facet normal 0.000000 1.000000 0.000000
outer loop
vertex 30.315599 1.000000 55.427502
vertex 34.360699 1.000000 56.488602
vertex 34.360699 1.000000 52.488602
endloop
endfacet
facet normal 0.000000 -1.000000 0.000000
outer loop
vertex -2.000000 -1.000000 80.000000
vertex -6.045080 -1.000000 77.061096
vertex -2.000000 -1.000000 76.000000
endloop
endfacet
facet normal 0.000000 -1.000000 0.000000
outer loop
vertex -6.045080 -1.000000 77.061096
vertex -10.090200 -1.000000 74.122101
vertex -6.045080 -1.000000 73.061096
endloop
endfacet
facet normal 0.000000 -1.000000 0.000000
outer loop
vertex -10.090200 -1.000000 74.122101
vertex -14.135300 -1.000000 71.183197
vertex -10.090200 -1.000000 70.122101
endloop
endfacet
facet normal 0.000000 -1.000000 0.000000
outer loop
vertex -14.135300 -1.000000 71.183197
vertex -18.180300 -1.000000 68.244301
vertex -14.135300 -1.000000 67.183197
endloop
endfacet
facet normal 0.000000 -1.000000 0.000000
outer loop
vertex -18.180300 -1.000000 68.244301
vertex -22.225401 -1.000000 65.305397
vertex -18.180300 -1.000000 64.244301
endloop
endfacet
facet normal 0.000000 -1.000000 0.000000
outer loop
vertex -22.225401 -1.000000 65.305397
vertex -26.270500 -1.000000 62.366402
vertex -22.225401 -1.000000 61.305401
endloop
endfacet
facet normal 0.000000 -1.000000 0.000000
outer loop
vertex -26.270500 -1.000000 62.366402
vertex -30.315599 -1.000000 59.427502
vertex -26.270500 -1.000000 58.366402
endloop
endfacet
facet normal 0.000000 -1.000000 0.000000
outer loop
vertex -30.315599 -1.000000 59.427502
vertex -34.360699 -1.000000 56.488602
vertex -30.315599 -1.000000 55.427502
endloop
endfacet
facet normal 0.000000 -1.000000 0.000000
outer loop
vertex -2.000000 -1.000000 76.000000
vertex -6.045080 -1.000000 77.061096
vertex -6.045080 -1.000000 73.061096
endloop
endfacet
facet normal 0.000000 -1.000000 0.000000
outer loop
vertex -6.045080 -1.000000 73.061096
vertex -10.090200 -1.000000 74.122101
vertex -10.090200 -1.000000 70.122101
endloop
endfacet
facet normal 0.000000 -1.000000 0.000000
outer loop
vertex -10.090200 -1.000000 70.122101
vertex -14.135300 -1.000000 71.183197
vertex -14.135300 -1.000000 67.183197
endloop
endfacet
facet normal 0.000000 -1.000000 0.000000
outer loop
vertex -14.135300 -1.000000 67.183197
vertex -18.180300 -1.000000 68.244301
vertex -18.180300 -1.000000 64.244301
endloop
endfacet
facet normal 0.000000 -1.000000 0.000000
outer loop
vertex -18.180300 -1.000000 64.244301
vertex -22.225401 -1.000000 65.305397
vertex -22.225401 -1.000000 61.305401
endloop
endfacet
facet normal 0.000000 -1.000000 0.000000
outer loop
vertex -22.225401 -1.000000 61.305401
vertex -26.270500 -1.000000 62.366402
vertex -26.270500 -1.000000 58.366402
endloop
endfacet
facet normal 0.000000 -1.000000 0.000000
outer loop
vertex -26.270500 -1.000000 58.366402
vertex -30.315599 -1.000000 59.427502
vertex -30.315599 -1.000000 55.427502
endloop
endfacet
facet normal 0.000000 -1.000000 0.000000
outer loop
vertex -30.315599 -1.000000 55.427502
vertex -34.360699 -1.000000 56.488602
vertex -34.360699 -1.000000 52.488602
endloop
endfacet
facet normal -1.000000 0.000000 0.000000
outer loop
vertex -34.360699 -1.000000 56.488602
vertex -34.360699 1.000000 56.488602
vertex -34.360699 1.000000 52.488602
endloop
endfacet
facet normal 0.000000 1.000000 0.000000
outer loop
vertex -2.000000 1.000000 80.000000
vertex -2.000000 1.000000 76.000000
vertex -6.045080 1.000000 77.061096
endloop
endfacet
facet normal 0.000000 1.000000 0.000000
outer loop
vertex -6.045080 1.000000 77.061096
vertex -6.045080 1.000000 73.061096
vertex -10.090200 1.000000 74.122101
endloop
endfacet
facet normal 0.000000 1.000000 0.000000
outer loop
vertex -10.090200 1.000000 74.122101
vertex -10.090200 1.000000 70.122101
vertex -14.135300 1.000000 71.183197
endloop
endfacet
facet normal 0.000000 1.000000 0.000000
outer loop
vertex -14.135300 1.000000 71.183197
vertex -14.135300 1.000000 67.183197
vertex -18.180300 1.000000 68.244301
endloop
endfacet
facet normal 0.000000 1.000000 0.000000
outer loop
vertex -18.180300 1.000000 68.244301
vertex -18.180300 1.000000 64.244301
vertex -22.225401 1.000000 65.305397
endloop
endfacet
facet normal 0.000000 1.000000 0.000000
outer loop
vertex -22.225401 1.000000 65.305397
vertex -22.225401 1.000000 61.305401
vertex -26.270500 1.000000 62.366402
endloop
endfacet
facet normal 0.000000 1.000000 0.000000
outer loop
vertex -26.270500 1.000000 62.366402
vertex -26.270500 1.000000 58.366402
vertex -30.315599 1.000000 59.427502
endloop
endfacet
facet normal 0.000000 1.000000 0.000000
outer loop
vertex -30.315599 1.000000 59.427502
vertex -30.315599 1.000000 55.427502
vertex -34.360699 1.000000 56.488602
endloop
endfacet
facet normal 0.000000 1.000000 0.000000
outer loop
vertex -2.000000 1.000000 76.000000
vertex -6.045080 1.000000 73.061096
vertex -6.045080 1.000000 77.061096
endloop
endfacet
facet normal 0.000000 1.000000 0.000000
outer loop
vertex -6.045080 1.000000 73.061096
vertex -10.090200 1.000000 70.122101
vertex -10.090200 1.000000 74.122101
endloop
endfacet
facet normal 0.000000 1.000000 0.000000
outer loop
vertex -10.090200 1.000000 70.122101
vertex -14.135300 1.000000 67.183197
vertex -14.135300 1.000000 71.183197
endloop
endfacet
facet normal 0.000000 1.000000 0.000000
outer loop
vertex -14.135300 1.000000 67.183197
vertex -18.180300 1.000000 64.244301
vertex -18.180300 1.000000 68.244301
endloop
endfacet
facet normal 0.000000 1.000000 0.000000
outer loop
vertex -18.180300 1.000000 64.244301
vertex -22.225401 1.000000 61.305401
vertex -22.225401 1.000000 65.305397
endloop
endfacet
facet normal 0.000000 1.000000 0.000000
outer loop
vertex -22.225401 1.000000 61.305401
vertex -26.270500 1.000000 58.366402
vertex -26.270500 1.000000 62.366402
endloop
endfacet
facet normal 0.000000 1.000000 0.000000
outer loop
vertex -26.270500 1.000000 58.366402
vertex -30.315599 1.000000 55.427502
vertex -30.315599 1.000000 59.427502
endloop
endfacet
facet normal 0.000000 1.000000 0.000000
outer loop
vertex -30.315599 1.000000 55.427502
vertex -34.360699 1.000000 52.488602
vertex -34.360699 1.000000 56.488602
endloop
endfacet
facet normal -0.587783 0.000000 0.809019
outer loop
vertex -2.000000 1.000000 80.000000
vertex -6.045080 1.000000 77.061096
vertex -2.000000 -1.000000 80.000000
endloop
endfacet
facet normal -0.587791 0.000000 0.809013
outer loop
vertex -6.045080 1.000000 77.061096
vertex -10.090200 1.000000 74.122101
vertex -6.045080 -1.000000 77.061096
endloop
endfacet
facet normal -0.587781 0.000000 0.809020
outer loop
vertex -10.090200 1.000000 74.122101
vertex -14.135300 1.000000 71.183197
vertex -10.090200 -1.000000 74.122101
endloop
endfacet
facet normal -0.587790 0.000000 0.809013
outer loop
vertex -14.135300 1.000000 71.183197
vertex -18.180300 1.000000 68.244301
vertex -14.135300 -1.000000 71.183197
endloop
endfacet
facet normal -0.587781 0.000000 0.809020
outer loop
vertex -18.180300 1.000000 68.244301
vertex -22.225401 1.000000 65.305397
vertex -18.180300 -1.000000 68.244301
endloop
endfacet
facet normal -0.587793 0.000000 0.809011
outer loop
vertex -22.225401 1.000000 65.305397
vertex -26.270500 1.000000 62.366402
vertex -22.225401 -1.000000 65.305397
endloop
endfacet
facet normal -0.587781 0.000000 0.809020
outer loop
vertex -26.270500 1.000000 62.366402
vertex -30.315599 1.000000 59.427502
vertex -26.270500 -1.000000 62.366402
endloop
endfacet
facet normal -0.587780 0.000000 0.809021
outer loop
vertex -30.315599 1.000000 59.427502
vertex -34.360699 1.000000 56.488602
vertex -30.315599 -1.000000 59.427502
endloop
endfacet
facet normal -0.587783 0.000000 0.809019
outer loop
vertex -2.000000 -1.000000 80.000000
vertex -6.045080 1.000000 77.061096
vertex -6.045080 -1.000000 77.061096
endloop
endfacet
facet normal -0.587791 0.000000 0.809013
outer loop
vertex -6.045080 -1.000000 77.061096
vertex -10.090200 1.000000 74.122101
vertex -10.090200 -1.000000 74.122101
endloop
endfacet
facet normal -0.587781 0.000000 0.809020
outer loop
vertex -10.090200 -1.000000 74.122101
vertex -14.135300 1.000000 71.183197
vertex -14.135300 -1.000000 71.183197
endloop
endfacet
facet normal -0.587788 0.000000 0.809015
outer loop
vertex -14.135300 -1.000000 71.183197
vertex -18.180300 1.000000 68.244301
vertex -18.180300 -1.000000 68.244301
endloop
endfacet
facet normal -0.587781 0.000000 0.809020
outer loop
vertex -18.180300 -1.000000 68.244301
vertex -22.225401 1.000000 65.305397
vertex -22.225401 -1.000000 65.305397
endloop
endfacet
facet normal -0.587793 0.000000 0.809011
outer loop
vertex -22.225401 -1.000000 65.305397
vertex -26.270500 1.000000 62.366402
vertex -26.270500 -1.000000 62.366402
endloop
endfacet
facet normal -0.587780 0.000000 0.809021
outer loop
vertex -26.270500 -1.000000 62.366402
vertex -30.315599 1.000000 59.427502
vertex -30.315599 -1.000000 59.427502
endloop
endfacet
facet normal -0.587781 0.000000 0.809020
outer loop
vertex -30.315599 -1.000000 59.427502
vertex -34.360699 1.000000 56.488602
vertex -34.360699 -1.000000 56.488602
endloop
endfacet
facet normal 0.587783 0.000000 0.809019
outer loop
vertex 2.000000 1.000000 80.000000
vertex 2.000000 -1.000000 80.000000
vertex 6.045080 1.000000 77.061096
endloop
endfacet
facet normal 0.587791 0.000000 0.809013
outer loop
vertex 6.045080 1.000000 77.061096
vertex 6.045080 -1.000000 77.061096
vertex 10.090200 1.000000 74.122101
endloop
endfacet
facet normal 0.587781 0.000000 0.809020
outer loop
vertex 10.090200 1.000000 74.122101
vertex 10.090200 -1.000000 74.122101
vertex 14.135300 1.000000 71.183197
endloop
endfacet
facet normal 0.587790 0.000000 0.809013
outer loop
vertex 14.135300 1.000000 71.183197
vertex 14.135300 -1.000000 71.183197
vertex 18.180300 1.000000 68.244301
endloop
endfacet
facet normal 0.587781 0.000000 0.809020
outer loop
vertex 18.180300 1.000000 68.244301
vertex 18.180300 -1.000000 68.244301
vertex 22.225401 1.000000 65.305397
endloop
endfacet
facet normal 0.587793 0.000000 0.809011
outer loop
vertex 22.225401 1.000000 65.305397
vertex 22.225401 -1.000000 65.305397
vertex 26.270500 1.000000 62.366402
endloop
endfacet
facet normal 0.587781 0.000000 0.809020
outer loop
vertex 26.270500 1.000000 62.366402
vertex 26.270500 -1.000000 62.366402
vertex 30.315599 1.000000 59.427502
endloop
endfacet
facet normal 0.587780 0.000000 0.809021
outer loop
vertex 30.315599 1.000000 59.427502
vertex 30.315599 -1.000000 59.427502
vertex 34.360699 1.000000 56.488602
endloop
endfacet
facet normal 0.587783 0.000000 0.809019
outer loop
vertex 2.000000 -1.000000 80.000000
vertex 6.045080 -1.000000 77.061096
vertex 6.045080 1.000000 77.061096
endloop
endfacet
facet normal 0.587791 0.000000 0.809013
outer loop
vertex 6.045080 -1.000000 77.061096
vertex 10.090200 -1.000000 74.122101
vertex 10.090200 1.000000 74.122101
endloop
endfacet
facet normal 0.587781 0.000000 0.809020
outer loop
vertex 10.090200 -1.000000 74.122101
vertex 14.135300 -1.000000 71.183197
vertex 14.135300 1.000000 71.183197
endloop
endfacet
facet normal 0.587788 0.000000 0.809015
outer loop
vertex 14.135300 -1.000000 71.183197
vertex 18.180300 -1.000000 68.244301
vertex 18.180300 1.000000 68.244301
endloop
endfacet
facet normal 0.587781 0.000000 0.809020
outer loop
vertex 18.180300 -1.000000 68.244301
vertex 22.225401 -1.000000 65.305397
vertex 22.225401 1.000000 65.305397
endloop
endfacet
facet normal 0.587793 0.000000 0.809011
outer loop
vertex 22.225401 -1.000000 65.305397
vertex 26.270500 -1.000000 62.366402
vertex 26.270500 1.000000 62.366402
endloop
endfacet
facet normal 0.587780 0.000000 0.809021
outer loop
vertex 26.270500 -1.000000 62.366402
vertex 30.315599 -1.000000 59.427502
vertex 30.315599 1.000000 59.427502
endloop
endfacet
facet normal 0.587781 0.000000 0.809020
outer loop
vertex 30.315599 -1.000000 59.427502
vertex 34.360699 -1.000000 56.488602
vertex 34.360699 1.000000 56.488602
endloop
endfacet
facet normal 0.000000 -1.000000 0.000000
outer loop
vertex -2.000000 -1.000000 80.000000
vertex 2.000000 -1.000000 80.000000
vertex -2.000000 -1.000000 85.000000
endloop
endfacet
facet normal 0.000000 -1.000000 0.000000
outer loop
vertex -2.000000 -1.000000 85.000000
vertex 2.000000 -1.000000 85.000000
vertex -2.000000 -1.000000 90.000000
endloop
endfacet
facet normal 0.000000 -1.000000 0.000000
outer loop
vertex -2.000000 -1.000000 90.000000
vertex 2.000000 -1.000000 90.000000
vertex -2.000000 -1.000000 95.000000
endloop
endfacet
facet normal 0.000000 -1.000000 0.000000
outer loop
vertex -2.000000 -1.000000 95.000000
vertex 2.000000 -1.000000 95.000000
vertex -2.000000 -1.000000 100.000000
endloop
endfacet
facet normal 0.000000 -1.000000 0.000000
outer loop
vertex -2.000000 -1.000000 100.000000
vertex 2.000000 -1.000000 100.000000
vertex -2.000000 -1.000000 105.000000
endloop
endfacet
facet normal 0.000000 -1.000000 0.000000
outer loop
vertex -2.000000 -1.000000 105.000000
vertex 2.000000 -1.000000 105.000000
vertex -2.000000 -1.000000 110.000000
endloop
endfacet
facet normal 0.000000 -1.000000 0.000000
outer loop
vertex -2.000000 -1.000000 110.000000
vertex 2.000000 -1.000000 110.000000
vertex -2.000000 -1.000000 115.000000
endloop
endfacet
facet normal 0.000000 -1.000000 0.000000
outer loop
vertex -2.000000 -1.000000 115.000000
vertex 2.000000 -1.000000 115.000000
vertex -2.000000 -1.000000 120.000000
endloop
endfacet
facet normal 0.000000 -1.000000 0.000000
outer loop
vertex 2.000000 -1.000000 80.000000
vertex 2.000000 -1.000000 85.000000
vertex -2.000000 -1.000000 85.000000
endloop
endfacet
facet normal 0.000000 -1.000000 0.000000
outer loop
vertex 2.000000 -1.000000 85.000000
vertex 2.000000 -1.000000 90.000000
vertex -2.000000 -1.000000 90.000000
endloop
endfacet
facet normal 0.000000 -1.000000 0.000000
outer loop
vertex 2.000000 -1.000000 90.000000
vertex 2.000000 -1.000000 95.000000
vertex -2.000000 -1.000000 95.000000
endloop
endfacet
facet normal 0.000000 -1.000000 0.000000
outer loop
vertex 2.000000 -1.000000 95.000000
vertex 2.000000 -1.000000 100.000000
vertex -2.000000 -1.000000 100.000000
endloop
endfacet
facet normal 0.000000 -1.000000 0.000000
outer loop
vertex 2.000000 -1.000000 100.000000
vertex 2.000000 -1.000000 105.000000
vertex -2.000000 -1.000000 105.000000
endloop
endfacet
facet normal 0.000000 -1.000000 0.000000
outer loop
vertex 2.000000 -1.000000 105.000000
vertex 2.000000 -1.000000 110.000000
vertex -2.000000 -1.000000 110.000000
endloop
endfacet
facet normal 0.000000 -1.000000 0.000000
outer loop
vertex 2.000000 -1.000000 110.000000
vertex 2.000000 -1.000000 115.000000
vertex -2.000000 -1.000000 115.000000
endloop
endfacet
facet normal 0.000000 -1.000000 0.000000
outer loop
vertex 2.000000 -1.000000 115.000000
vertex 2.000000 -1.000000 120.000000
vertex -2.000000 -1.000000 120.000000
endloop
endfacet
facet normal 0.000000 1.000000 0.000000
outer loop
vertex -2.000000 1.000000 80.000000
vertex -2.000000 1.000000 85.000000
vertex 2.000000 1.000000 80.000000
endloop
endfacet
facet normal 0.000000 1.000000 0.000000
outer loop
vertex -2.000000 1.000000 85.000000
vertex -2.000000 1.000000 90.000000
vertex 2.000000 1.000000 85.000000
endloop
endfacet
facet normal 0.000000 1.000000 0.000000
outer loop
vertex -2.000000 1.000000 90.000000
vertex -2.000000 1.000000 95.000000
vertex 2.000000 1.000000 90.000000
endloop
endfacet
facet normal 0.000000 1.000000 0.000000
outer loop
vertex -2.000000 1.000000 95.000000
vertex -2.000000 1.000000 100.000000
vertex 2.000000 1.000000 95.000000
endloop
endfacet
facet normal 0.000000 1.000000 0.000000
outer loop
vertex -2.000000 1.000000 100.000000
vertex -2.000000 1.000000 105.000000
vertex 2.000000 1.000000 100.000000
endloop
endfacet
facet normal 0.000000 1.000000 0.000000
outer loop
vertex -2.000000 1.000000 105.000000
vertex -2.000000 1.000000 110.000000
vertex 2.000000 1.000000 105.000000
endloop
endfacet
facet normal 0.000000 1.000000 0.000000
outer loop
vertex -2.000000 1.000000 110.000000
vertex -2.000000 1.000000 115.000000
vertex 2.000000 1.000000 110.000000
endloop
endfacet
facet normal 0.000000 1.000000 0.000000
outer loop
vertex -2.000000 1.000000 115.000000
vertex -2.000000 1.000000 120.000000
vertex 2.000000 1.000000 115.000000
endloop
endfacet
facet normal 0.000000 1.000000 0.000000
outer loop
vertex 2.000000 1.000000 80.000000
vertex -2.000000 1.000000 85.000000
vertex 2.000000 1.000000 85.000000
endloop
endfacet
facet normal 0.000000 1.000000 0.000000
outer loop
vertex 2.000000 1.000000 85.000000
vertex -2.000000 1.000000 90.000000
vertex 2.000000 1.000000 90.000000
endloop
endfacet
facet normal 0.000000 1.000000 0.000000
outer loop
vertex 2.000000 1.000000 90.000000
vertex -2.000000 1.000000 95.000000
vertex 2.000000 1.000000 95.000000
endloop
endfacet
facet normal 0.000000 1.000000 0.000000
outer loop
vertex 2.000000 1.000000 95.000000
vertex -2.000000 1.000000 100.000000
vertex 2.000000 1.000000 100.000000
endloop
endfacet
facet normal 0.000000 1.000000 0.000000
outer loop
vertex 2.000000 1.000000 100.000000
vertex -2.000000 1.000000 105.000000
vertex 2.000000 1.000000 105.000000
endloop
endfacet
facet normal 0.000000 1.000000 0.000000
outer loop
vertex 2.000000 1.000000 105.000000
vertex -2.000000 1.000000 110.000000
vertex 2.000000 1.000000 110.000000
endloop
endfacet
facet normal 0.000000 1.000000 0.000000
outer loop
vertex 2.000000 1.000000 110.000000
vertex -2.000000 1.000000 115.000000
vertex 2.000000 1.000000 115.000000
endloop
endfacet
facet normal 0.000000 1.000000 0.000000
outer loop
vertex 2.000000 1.000000 115.000000
vertex -2.000000 1.000000 120.000000
vertex 2.000000 1.000000 120.000000
endloop
endfacet
facet normal -1.000000 0.000000 0.000000
outer loop
vertex -2.000000 -1.000000 80.000000
vertex -2.000000 -1.000000 85.000000
vertex -2.000000 1.000000 80.000000
endloop
endfacet
facet normal -1.000000 0.000000 0.000000
outer loop
vertex -2.000000 -1.000000 85.000000
vertex -2.000000 -1.000000 90.000000
vertex -2.000000 1.000000 85.000000
endloop
endfacet
facet normal -1.000000 0.000000 0.000000
outer loop
vertex -2.000000 -1.000000 90.000000
vertex -2.000000 -1.000000 95.000000
vertex -2.000000 1.000000 90.000000
endloop
endfacet
facet normal -1.000000 0.000000 0.000000
outer loop
vertex -2.000000 -1.000000 95.000000
vertex -2.000000 -1.000000 100.000000
vertex -2.000000 1.000000 95.000000
endloop
endfacet
facet normal -1.000000 0.000000 0.000000
outer loop
vertex -2.000000 -1.000000 100.000000
vertex -2.000000 -1.000000 105.000000
vertex -2.000000 1.000000 100.000000
endloop
endfacet
facet normal -1.000000 0.000000 0.000000
outer loop
vertex -2.000000 -1.000000 105.000000
vertex -2.000000 -1.000000 110.000000
vertex -2.000000 1.000000 105.000000
endloop
endfacet
facet normal -1.000000 0.000000 0.000000
outer loop
vertex -2.000000 -1.000000 110.000000
vertex -2.000000 -1.000000 115.000000
vertex -2.000000 1.000000 110.000000
endloop
endfacet
facet normal -1.000000 0.000000 0.000000
outer loop
vertex -2.000000 -1.000000 115.000000
vertex -2.000000 -1.000000 120.000000
vertex -2.000000 1.000000 115.000000
endloop
endfacet
facet normal -1.000000 0.000000 0.000000
outer loop
vertex -2.000000 1.000000 80.000000
vertex -2.000000 -1.000000 85.000000
vertex -2.000000 1.000000 85.000000
endloop
endfacet
facet normal -1.000000 0.000000 0.000000
outer loop
vertex -2.000000 1.000000 85.000000
vertex -2.000000 -1.000000 90.000000
vertex -2.000000 1.000000 90.000000
endloop
endfacet
facet normal -1.000000 0.000000 0.000000
outer loop
vertex -2.000000 1.000000 90.000000
vertex -2.000000 -1.000000 95.000000
vertex -2.000000 1.000000 95.000000
endloop
endfacet
facet normal -1.000000 0.000000 0.000000
outer loop
vertex -2.000000 1.000000 95.000000
vertex -2.000000 -1.000000 100.000000
vertex -2.000000 1.000000 100.000000
endloop
endfacet
facet normal -1.000000 0.000000 0.000000
outer loop
vertex -2.000000 1.000000 100.000000
vertex -2.000000 -1.000000 105.000000
vertex -2.000000 1.000000 105.000000
endloop
endfacet
facet normal -1.000000 0.000000 0.000000
outer loop
vertex -2.000000 1.000000 105.000000
vertex -2.000000 -1.000000 110.000000
vertex -2.000000 1.000000 110.000000
endloop
endfacet
facet normal -1.000000 0.000000 0.000000
outer loop
vertex -2.000000 1.000000 110.000000
vertex -2.000000 -1.000000 115.000000
vertex -2.000000 1.000000 115.000000
endloop
endfacet
facet normal -1.000000 0.000000 0.000000
outer loop
vertex -2.000000 1.000000 115.000000
vertex -2.000000 -1.000000 120.000000
vertex -2.000000 1.000000 120.000000
endloop
endfacet
facet normal 1.000000 0.000000 0.000000
outer loop
vertex 2.000000 -1.000000 80.000000
vertex 2.000000 1.000000 80.000000
vertex 2.000000 -1.000000 85.000000
endloop
endfacet
facet normal 1.000000 0.000000 0.000000
outer loop
vertex 2.000000 -1.000000 85.000000
vertex 2.000000 1.000000 85.000000
vertex 2.000000 -1.000000 90.000000
endloop
endfacet
facet normal 1.000000 0.000000 0.000000
outer loop
vertex 2.000000 -1.000000 90.000000
vertex 2.000000 1.000000 90.000000
vertex 2.000000 -1.000000 95.000000
endloop
endfacet
facet normal 1.000000 0.000000 0.000000
outer loop
vertex 2.000000 -1.000000 95.000000
vertex 2.000000 1.000000 95.000000
vertex 2.000000 -1.000000 100.000000
endloop
endfacet
facet normal 1.000000 0.000000 0.000000
outer loop
vertex 2.000000 -1.000000 100.000000
vertex 2.000000 1.000000 100.000000
vertex 2.000000 -1.000000 105.000000
endloop
endfacet
facet normal 1.000000 0.000000 0.000000
outer loop
vertex 2.000000 -1.000000 105.000000
vertex 2.000000 1.000000 105.000000
vertex 2.000000 -1.000000 110.000000
endloop
endfacet
facet normal 1.000000 0.000000 0.000000
outer loop
vertex 2.000000 -1.000000 110.000000
vertex 2.000000 1.000000 110.000000
vertex 2.000000 -1.000000 115.000000
endloop
endfacet
facet normal 1.000000 0.000000 0.000000
outer loop
vertex 2.000000 -1.000000 115.000000
vertex 2.000000 1.000000 115.000000
vertex 2.000000 -1.000000 120.000000
endloop
endfacet
facet normal 1.000000 0.000000 0.000000
outer loop
vertex 2.000000 1.000000 80.000000
vertex 2.000000 1.000000 85.000000
vertex 2.000000 -1.000000 85.000000
endloop
endfacet
facet normal 1.000000 0.000000 0.000000
outer loop
vertex 2.000000 1.000000 85.000000
vertex 2.000000 1.000000 90.000000
vertex 2.000000 -1.000000 90.000000
endloop
endfacet
facet normal 1.000000 0.000000 0.000000
outer loop
vertex 2.000000 1.000000 90.000000
vertex 2.000000 1.000000 95.000000
vertex 2.000000 -1.000000 95.000000
endloop
endfacet
facet normal 1.000000 0.000000 0.000000
outer loop
vertex 2.000000 1.000000 95.000000
vertex 2.000000 1.000000 100.000000
vertex 2.000000 -1.000000 100.000000
endloop
endfacet
facet normal 1.000000 0.000000 0.000000
outer loop
vertex 2.000000 1.000000 100.000000
vertex 2.000000 1.000000 105.000000
vertex 2.000000 -1.000000 105.000000
endloop
endfacet
facet normal 1.000000 0.000000 0.000000
outer loop
vertex 2.000000 1.000000 105.000000
vertex 2.000000 1.000000 110.000000
vertex 2.000000 -1.000000 110.000000
endloop
endfacet
facet normal 1.000000 0.000000 0.000000
outer loop
vertex 2.000000 1.000000 110.000000
vertex 2.000000 1.000000 115.000000
vertex 2.000000 -1.000000 115.000000
endloop
endfacet
facet normal 1.000000 0.000000 0.000000
outer loop
vertex 2.000000 1.000000 115.000000
vertex 2.000000 1.000000 120.000000
vertex 2.000000 -1.000000 120.000000
endloop
endfacet
endsolid Exported from Blender-2.92.0
